<svg width="121" height="34" viewBox="0 0 121 34" fill="none" xmlns="http://www.w3.org/2000/svg">
<path d="M1 13.5428C13.5 8.04276 15.7 2.44276 26.5 2.04276C40 1.54276 41 5.54276 46 8.04276C51 10.5428 52.5 13.5428 64.5 13.5428C76.5 13.5428 79.5 2.04276 94.5 2.04276C109.5 2.04276 108.5 13.5428 121 13.5428" stroke="#F1F1F1" stroke-width="4"/>
<path d="M1 31.5428C13.5 26.0428 15.7 20.4428 26.5 20.0428C40 19.5428 41 23.5428 46 26.0428C51 28.5428 52.5 31.5428 64.5 31.5428C76.5 31.5428 79.5 20.0428 94.5 20.0428C109.5 20.0428 108.5 31.5428 121 31.5428" stroke="#F1F1F1" stroke-width="4"/>
</svg>
