<svg id="Layer_1" data-name="Layer 1" xmlns="http://www.w3.org/2000/svg" viewBox="0 0 5754 900"><path d="M5557,208c-53,33-87,72-118,114-27,36.57-103.22,133.72-138,189-56,89-146,170.92-275,172-119.75,1-177.15-49.55-259-169-37-54-46.74-70.65-75-109-28-38-66-101-100-134-35.33-34.29-155.69-173.13-272-182-164-13-235,19-272,38-46.78,24-97,54-144,117-27.18,36.43-88,166-116,225-16,33.81-73,212.92-202,214-119.75,1-177.15-49.55-259-169-37-54-46.74-70.65-75-109-28-38-66-101-100-134-35.33-34.29-155.69-173.13-272-182V88c-164-13-245,51-265,64-44.09,28.66-89,66-135,145-39.91,68.55-67,184-108,266-16.73,33.47-69,186.92-198,188-119.75,1-213.8-60.21-278-190-46-93-60-123-80-145-63.91-70.31-80-80-116-104-41-27.31-143.69-72.13-260-81-298,52-320.19,124.65-334,138-30,29-51.37,59.06-84,108-44,66-69,129-110,211-16.73,33.47-76,134.92-205,136-119.75,1-188-24.64-251-155-59-122-71-200-91-270-26.1-91.36-69-145-105-169-41-27.31-143.69-73.13-260-82V416c16.26-4,53.81-25.22,83-17,25.74,7.25,82,7,159,95,43,49.19,65,169,85,220,19.81,50.51,54.05,152.77,67,187h656c1.28-45.31,28.06-98.22,69-167,25-42,50.74-80.32,123-151,84.7-82.84,146-80.16,198-85,16.26-4,75-1,107-2,26.72-.84,109.34,10.27,164,54,35,28,80.91,71.38,108,119,62,109,97,196.77,110,231h585c1.28-45.31,12.67-238.08,31-316,12-51,22.74-99.32,95-170,84.7-82.84,188.05-66.16,240-71v2c16.26-4,71.9,16.14,105,36,40,24,131.38,85.47,174,141,33,43,51.46,107.56,60,140,30,114,46,189,49,246h617c1.28-45.31,0-318,73-452,17.34-31.83,45-81,91-102,107.78-49.2,219.05-29.16,271-34v2c16.26-4,72.9,14.14,106,34,40,24,111.38,71.47,154,127,33,43,52,129,58,162,21,116,25,206,28,263h659c1.28-45.31,89-211,162-345,17.34-31.83,49.77-79.39,95-102,76-38,125-40,178-38V170C5600,175,5577.67,195.13,5557,208Z"/></svg>