<svg id="Layer_1" data-name="Layer 1" xmlns="http://www.w3.org/2000/svg" viewBox="0 0 5754 900"><defs><style>.cls-1{fill:none;stroke:#000;stroke-miterlimit:10;stroke-width:100px;}</style></defs><path class="cls-1" d="M1,316.48c320.17,0,320.17,461,640.33,461s320.17-461,640.33-461,320.17,461,640.33,461,320.17-461,640.33-461,320.17,461,640.34,461,320.17-461,640.33-461,320.17,461,640.34,461,320.17-461,640.33-461,320.17,461,640.34,461"/><path class="cls-1" d="M389,637c14.62,26.27,42.83,65,56,102,9.85,27.67,31.9,88.62,37,112H773c.29-23.92,10.52-76,52-124,64-74,79-104,96-124"/><path class="cls-1" d="M1665,634c14.62,26.27,42.83,65,56,102,9.85,27.67,31.9,88.62,37,112h291c.29-23.92,10.52-76,52-124,64-74,67-77,84-97"/><path class="cls-1" d="M2946,635c14.62,26.27,42.83,65,56,102,9.85,27.67,31.9,88.62,37,112h291c.29-23.92,10.52-76,52-124,64-74,67-77,84-97"/><path class="cls-1" d="M4227,635c14.62,26.27,42.83,65,56,102,9.85,27.67,31.9,88.62,37,112h291c.29-23.92,10.52-76,52-124,64-74,67-77,84-97"/><path class="cls-1" d="M5561,696c24.13,24.51,17,16,51,70,17.74,28.18,22.63,58.33,28,82h125"/></svg>