<svg id="Layer_1" data-name="Layer 1" xmlns="http://www.w3.org/2000/svg" viewBox="0 0 1440 900"><path d="M0,264c116.31,8.87,219,54.69,260,82,36,24,52.09,33.69,116,104,20,22,34,52,80,145,64.2,129.79,158.25,191,278,190,129-1.08,181.27-154.53,198-188,41-82,64-200,108-266,32.63-48.94,98.22-93,145-117,37-19,91-41,255-28V377c-52,4.84-155.3-11.84-240,71-72.26,70.68-83,119-95,170-18.33,77.92-29.72,236.69-31,282H489c-12.95-34.23-41-108-103-217-27.09-47.62-85.71-92.78-138-132-56-42-138.28-37.84-165-37-32,1-66.74,14-83,18Z"/></svg>