<svg id="Layer_1" data-name="Layer 1" xmlns="http://www.w3.org/2000/svg" viewBox="0 0 1440 900"><path d="M0,147c116.31,8.87,219,54.69,260,82,36,24,78.9,77.64,105,169,20,70,32,148,91,270,63,130.36,131.25,156,251,155,129-1.08,188.27-102.53,205-136,41-82,66-145,110-211,32.63-48.94,45.94-60.15,87-93,15-12,56-65,331-119V497c-52,4.84-113.3,2.16-198,85-72.26,70.68-98,109-123,151-40.94,68.78-67.72,121.69-69,167H394c-12.95-34.23-47.19-136.49-67-187-20-51-42-170.81-85-220-77-88-133.26-87.75-159-95-29.19-8.22-66.74,13-83,17Z"/></svg>