<svg id="Layer_1" data-name="Layer 1" xmlns="http://www.w3.org/2000/svg" viewBox="0 0 1440 900"><path d="M0,234c116.31,8.87,216.39,59.16,260,82,21,11,50,36,111,97,13,13,48,143,85,197,81.85,119.45,144.25,141,264,140,129-1.08,150.27-104.53,167-138,41-82,77-150,121-216,32.63-48.94,125.22-92,172-116,37-19,96-59,260-46V465c-52,4.84-186.3-48.84-271,34-72.26,70.68-77,82-92,115-33.12,72.87-70.72,255.69-72,301H388c-12.95-34.23-1-163-39-272-21.82-62.59-49.71-97.78-102-137-56-42-137.28-22.84-164-22-32,1-66.74,14-83,18Z"/></svg>